<svg width="46" height="46" viewBox="0 0 46 46" fill="none" xmlns="http://www.w3.org/2000/svg">
<path d="M23 1C35.1503 1 45 10.8497 45 23C45 35.1503 35.1503 45 23 45C10.8497 45 1 35.1503 1 23C1 10.8497 10.8497 1 23 1Z" fill="#F5EDF0" stroke="#211461" stroke-width="2"/>
<path d="M10.7073 16.9977C10.7073 17.3019 10.9767 17.5393 11.2835 17.5073C12.5747 17.3792 13.5617 16.8297 14.4447 16.3388C15.301 15.864 15.9786 15.4878 16.8536 15.4878C17.7286 15.4878 18.4062 15.864 19.2625 16.3388C20.2736 16.9017 21.418 17.5366 23 17.5366C24.5819 17.5366 25.7263 16.9017 26.7374 16.3388C27.5937 15.864 28.2713 15.4878 29.1463 15.4878C30.0213 15.4878 30.6989 15.864 31.5552 16.3388C32.4382 16.8297 33.4253 17.3792 34.7164 17.5073C35.0232 17.5393 35.2926 17.3019 35.2926 16.9977V15.4185C35.2926 15.0877 35.0552 14.8129 34.7324 14.7516C34.1055 14.6315 33.548 14.3221 32.8837 13.9539C31.8727 13.391 30.7282 12.7561 29.1463 12.7561C27.5644 12.7561 26.4199 13.391 25.4089 13.9539C24.5526 14.4288 23.875 14.8049 23 14.8049C22.125 14.8049 21.4474 14.4288 20.591 13.9539C19.58 13.391 18.4356 12.7561 16.8536 12.7561C15.2717 12.7561 14.1272 13.391 13.1162 13.9539C12.4519 14.3221 11.8944 14.6315 11.2675 14.7516C10.9447 14.8129 10.7073 15.0877 10.7073 15.4185V16.9977Z" fill="#211461"/>
<path d="M10.7073 24.8514C10.7073 25.1555 10.9767 25.3929 11.2835 25.3609C12.5747 25.2329 13.5617 24.6833 14.4447 24.1925C15.301 23.7176 15.9786 23.3415 16.8536 23.3415C17.7286 23.3415 18.4062 23.7176 19.2625 24.1925C20.2736 24.7553 21.418 25.3903 23 25.3903C24.5819 25.3903 25.7263 24.7553 26.7374 24.1925C27.5937 23.7176 28.2713 23.3415 29.1463 23.3415C30.0213 23.3415 30.6989 23.7176 31.5552 24.1925C32.4382 24.6833 33.4253 25.2329 34.7164 25.3609C35.0232 25.3929 35.2926 25.1555 35.2926 24.8514V23.2721C35.2926 22.9413 35.0552 22.6666 34.7324 22.6052C34.1055 22.4852 33.548 22.1757 32.8837 21.8076C31.8727 21.2447 30.7282 20.6098 29.1463 20.6098C27.5644 20.6098 26.4199 21.2447 25.4089 21.8076C24.5526 22.2824 23.875 22.6586 23 22.6586C22.125 22.6586 21.4474 22.2824 20.591 21.8076C19.58 21.2447 18.4356 20.6098 16.8536 20.6098C15.2717 20.6098 14.1272 21.2447 13.1162 21.8076C12.4519 22.1757 11.8944 22.4852 11.2675 22.6052C10.9447 22.6666 10.7073 22.9413 10.7073 23.2721V24.8514Z" fill="#211461"/>
<path d="M10.7073 32.705C10.7073 33.0091 10.9767 33.2466 11.2835 33.2146C12.5747 33.0865 13.5617 32.537 14.4447 32.0461C15.301 31.5713 15.9786 31.1951 16.8536 31.1951C17.7286 31.1951 18.4062 31.5713 19.2625 32.0461C20.2736 32.609 21.418 33.2439 23 33.2439C24.5819 33.2439 25.7263 32.609 26.7374 32.0461C27.5937 31.5713 28.2713 31.1951 29.1463 31.1951C30.0213 31.1951 30.6989 31.5713 31.5552 32.0461C32.4382 32.537 33.4253 33.0865 34.7164 33.2146C35.0232 33.2466 35.2926 33.0091 35.2926 32.705V31.1258C35.2926 30.795 35.0552 30.5202 34.7324 30.4588C34.1055 30.3388 33.548 30.0293 32.8837 29.6612C31.8727 29.0983 30.7282 28.4634 29.1463 28.4634C27.5644 28.4634 26.4199 29.0983 25.4089 29.6612C24.5526 30.136 23.875 30.5122 23 30.5122C22.125 30.5122 21.4474 30.136 20.591 29.6612C19.58 29.0983 18.4356 28.4634 16.8536 28.4634C15.2717 28.4634 14.1272 29.0983 13.1162 29.6612C12.4519 30.0293 11.8944 30.3388 11.2675 30.4588C10.9447 30.5202 10.7073 30.795 10.7073 31.1258V32.705Z" fill="#211461"/>
</svg>
